<svg width="12" height="11" viewBox="0 0 12 11" fill="none" xmlns="http://www.w3.org/2000/svg">
<path d="M6 0C2.68629 0 0 2.97466 0 6.64408C0 8.12909 0.439962 9.50031 1.18342 10.6066C1.3547 10.8615 1.64861 11 1.95569 11H10.0443C10.3514 11 10.6453 10.8615 10.8166 10.6066C11.56 9.50031 12 8.12909 12 6.64408C12 2.97466 9.31371 0 6 0Z" fill="url(#paint0_linear)"/>
<path d="M9.80474 4.13807C10.0651 3.87772 10.0651 3.45561 9.80474 3.19526C9.54439 2.93491 9.12228 2.93491 8.86193 3.19526L6.6787 5.3785C6.56854 5.34904 6.45277 5.33333 6.33333 5.33333C5.59695 5.33333 5 5.93029 5 6.66667C5 7.40305 5.59695 8 6.33333 8C7.06971 8 7.66667 7.40305 7.66667 6.66667C7.66667 6.54723 7.65096 6.43146 7.6215 6.3213L9.80474 4.13807Z" fill="#F0856D"/>
<defs>
<linearGradient id="paint0_linear" x1="0.675675" y1="0.26506" x2="10.4643" y2="11.1633" gradientUnits="userSpaceOnUse">
<stop stop-color="#181818"/>
<stop offset="1" stop-color="#424242" stop-opacity="0.89"/>
</linearGradient>
</defs>
</svg>
