<svg width="11" height="12" viewBox="0 0 11 12" fill="none" xmlns="http://www.w3.org/2000/svg">
<path d="M10.2632 5.10211L10.8224 5.69669C11.0592 5.94844 11.0592 6.35554 10.8224 6.60462L5.92821 11.8112C5.69144 12.0629 5.30856 12.0629 5.07431 11.8112L0.177582 6.60462C-0.059194 6.35286 -0.059194 5.94577 0.177582 5.69669L0.736776 5.10211C0.976071 4.84767 1.3665 4.85303 1.60076 5.11282L4.49244 8.34014V0.642785C4.49244 0.286575 4.76197 0 5.09698 0H5.90302C6.23804 0 6.50756 0.286575 6.50756 0.642785V8.34014L9.39924 5.11282C9.6335 4.85035 10.0239 4.845 10.2632 5.10211Z" fill="black"/>
</svg>
