<svg width="8" height="15" viewBox="0 0 8 15" fill="none" xmlns="http://www.w3.org/2000/svg">
<path d="M0 10.7732V8.94241C0 7.86965 0.869646 7 1.94241 7C2.2629 7 2.53517 7.23447 2.58271 7.55142L3 10.3333L1.66436 11.5206C1.01946 12.0938 0 11.636 0 10.7732Z" fill="#F0856D"/>
<path d="M8 10.7732V8.94241C8 7.86965 7.13035 7 6.05759 7C5.7371 7 5.46483 7.23447 5.41729 7.55142L5 10.3333L6.33564 11.5206C6.98054 12.0938 8 11.636 8 10.7732Z" fill="#F0856D"/>
<path d="M4.12029 13H3.87971C3.38635 13 2.95335 13.3687 3.0439 13.8537C3.11779 14.2495 3.30497 14.6809 3.74755 14.9043C3.90535 14.9839 4.09464 14.9839 4.25245 14.9043C4.69504 14.6809 4.88221 14.2495 4.9561 13.8537C5.04665 13.3687 4.61366 13 4.12029 13Z" fill="#F0856D"/>
<path d="M0.223225 4.45714C0.765428 2.98149 2.47429 1.3294 3.39704 0.513329C3.7453 0.205335 4.25909 0.205335 4.60734 0.51333C5.53008 1.3294 7.23892 2.98148 7.78107 4.45714C8.30536 5.88417 7.78599 8.33062 7.29047 10.0495C6.9473 11.2399 5.83078 12 4.59192 12H3.40333C2.16895 12 1.05538 11.2453 0.7108 10.06C0.212877 8.34726 -0.308346 5.90386 0.223225 4.45714Z" fill="url(#paint0_linear)"/>
<circle cx="4" cy="6" r="1" fill="#F0856D"/>
<defs>
<linearGradient id="paint0_linear" x1="0.45045" y1="0.289157" x2="10.4406" y2="7.08631" gradientUnits="userSpaceOnUse">
<stop stop-color="#181818"/>
<stop offset="1" stop-color="#424242" stop-opacity="0.89"/>
</linearGradient>
</defs>
</svg>
