<svg width="11" height="14" viewBox="0 0 11 14" fill="none" xmlns="http://www.w3.org/2000/svg">
<path d="M5.5 14C6.36723 14 7.07069 13.2166 7.07069 12.25H3.92931C3.92931 13.2166 4.63277 14 5.5 14ZM10.7886 9.90637C10.3142 9.33871 9.4266 8.48477 9.4266 5.6875C9.4266 3.56289 8.08892 1.86211 6.28522 1.44484V0.875C6.28522 0.391836 5.93361 0 5.5 0C5.06639 0 4.71478 0.391836 4.71478 0.875V1.44484C2.91108 1.86211 1.57341 3.56289 1.57341 5.6875C1.57341 8.48477 0.685796 9.33871 0.211423 9.90637C0.0641016 10.0827 -0.0012107 10.2936 1.6976e-05 10.5C0.00271786 10.9484 0.318721 11.375 0.788184 11.375H10.2118C10.6813 11.375 10.9975 10.9484 11 10.5C11.0012 10.2936 10.9359 10.0825 10.7886 9.90637Z" fill="#FBF4F4"/>
</svg>
