<svg width="8" height="13" viewBox="0 0 8 13" fill="none" xmlns="http://www.w3.org/2000/svg">
<path d="M4.00001 13C6.12629 13 8 11.05 8 8.45C8 5.85 6.5 4.55 6 3.9C5.45392 3.1901 5.19872 2.307 5.0823 1.56075C4.96968 0.838884 4.2639 0.421358 3.80648 0.991041C3.33199 1.58197 2.82316 2.49963 2.5 3.9C2.17874 5.29215 2.5 6.5 2.5 6.5C2.5 6.5 2 6.175 1.75 5.2C1.54546 4.4023 0.49652 4.41425 0.328821 5.2205C0.147293 6.09324 0 7.0366 0 7.8C0 11.05 1.87372 13 4.00001 13Z" fill="url(#paint0_linear)"/>
<path d="M3.29723 8.73044C4.72552 8.73044 6.28532 8.00682 6.97247 6.85157C7.23595 6.40859 7.9799 6.21978 7.99837 6.73487C7.99945 6.76518 8 6.79559 8 6.8261C8 8.57899 6.19531 10 3.96912 10C2.79862 10 1.74465 9.60716 1.00825 8.9798C0.615905 8.64554 1.10433 8.25319 1.58784 8.43173C2.10679 8.62336 2.68612 8.73044 3.29723 8.73044Z" fill="#F0856D"/>
<defs>
<linearGradient id="paint0_linear" x1="0.45045" y1="12.6867" x2="10.9312" y2="6.10433" gradientUnits="userSpaceOnUse">
<stop stop-color="#181818"/>
<stop offset="1" stop-color="#424242" stop-opacity="0.89"/>
</linearGradient>
</defs>
</svg>
