<svg width="12" height="11" viewBox="0 0 12 11" fill="none" xmlns="http://www.w3.org/2000/svg">
<path d="M5.75484 2.22778L4.00178 2.86883V0.247784L2.57481 4.57377L4.00178 4.02364V6.98568L5.75484 2.22778ZM3.58438 0.0295522L3.55047 0.136395L3.15394 1.33894C2.10263 1.69129 1.35654 2.58013 1.35654 3.61901C1.35654 4.80791 2.25133 5.79905 3.53221 6.01728V7.23574C1.50002 6.99705 0 5.45806 0 3.62128C0 1.79132 1.56002 0.275063 3.58438 0.0295522ZM11.7079 10.1955C11.4158 10.4501 11.1053 10.4751 10.9619 10.4342C10.821 10.3933 10.2549 9.98182 9.38618 9.42487C8.51748 8.86565 8.50965 8.61332 8.26443 8.13594C8.01921 7.66083 7.47138 7.16754 6.76442 6.94476L6.51137 6.6106C5.86702 6.99477 5.12875 7.2221 4.39048 7.26302L4.44526 7.11298L4.86005 5.98773C6.0731 5.71721 6.97051 4.76017 6.97051 3.61901C6.97051 2.38009 5.96876 1.29802 4.46613 1.18436V0C6.63659 0.115935 8.34791 1.69357 8.34791 3.62128C8.34791 4.38509 8.05573 5.09207 7.59138 5.67629L7.97225 5.89452C8.22791 6.51057 8.794 6.98568 9.33922 7.19937C9.88445 7.41305 10.1792 7.41987 10.821 8.17686C11.4627 8.93158 11.9349 9.42487 11.9819 9.54763C12.0288 9.67038 12.0001 9.9409 11.7079 10.1955ZM11.4497 9.78859C11.4497 9.68857 11.3558 9.60673 11.241 9.60673C11.1262 9.60673 11.0323 9.68857 11.0323 9.78859C11.0323 9.88861 11.1262 9.97045 11.241 9.97045C11.3558 9.97045 11.4497 9.88861 11.4497 9.78859Z" fill="#C4C4C4"/>
</svg>
