<svg width="12" height="14" viewBox="0 0 12 14" fill="none" xmlns="http://www.w3.org/2000/svg">
<path d="M3.68353 2.43448C3.99235 2.2376 4.24532 1.9569 4.34981 1.60588L4.49343 1.12343C4.69184 0.456926 5.30461 0 6.00001 0C6.69542 0 7.30819 0.456926 7.5066 1.12343L7.65022 1.60589C7.75471 1.9569 8.00768 2.2376 8.31649 2.43448C8.65917 2.65295 9.07017 2.76607 9.4663 2.6753L9.61907 2.6403C10.3304 2.47731 11.0617 2.81694 11.3962 3.46554L11.4679 3.60474C11.7919 4.23298 11.718 4.99267 11.2792 5.54679L11.063 5.81986C10.7996 6.15243 10.6882 6.57576 10.6882 6.99998C10.6882 7.42421 10.7996 7.84753 11.063 8.1801L11.2792 8.45317C11.718 9.00729 11.7919 9.76698 11.4679 10.3952L11.3962 10.5344C11.0617 11.183 10.3304 11.5226 9.6191 11.3597L9.46637 11.3247C9.07022 11.2339 8.6592 11.347 8.31651 11.5655C8.00769 11.7624 7.75471 12.0431 7.65021 12.3941L7.5066 12.8766C7.30819 13.5431 6.69542 14 6.00001 14C5.30461 14 4.69184 13.5431 4.49343 12.8766L4.34982 12.3941C4.24532 12.0431 3.99234 11.7624 3.68351 11.5655C3.34082 11.347 2.9298 11.2339 2.53365 11.3247L2.38091 11.3597C1.66961 11.5226 0.938264 11.183 0.603841 10.5344L0.532059 10.3952C0.208131 9.76698 0.281953 9.00729 0.720777 8.45317L0.937073 8.18004C1.20043 7.84749 1.31179 7.42419 1.31179 6.99998C1.31179 6.57578 1.20043 6.15247 0.937074 5.81992L0.720776 5.54679C0.281953 4.99267 0.208131 4.23298 0.532059 3.60474L0.603826 3.46555C0.938257 2.81694 1.66963 2.47731 2.38094 2.6403L2.53372 2.67531C2.92985 2.76608 3.34085 2.65295 3.68353 2.43448Z" fill="url(#paint0_linear)"/>
<path fill-rule="evenodd" clip-rule="evenodd" d="M6 9C7.10457 9 8 8.10457 8 7C8 5.89543 7.10457 5 6 5C4.89543 5 4 5.89543 4 7C4 8.10457 4.89543 9 6 9Z" fill="#F0856D"/>
<defs>
<linearGradient id="paint0_linear" x1="0.675675" y1="0.33735" x2="13.0946" y2="11.2011" gradientUnits="userSpaceOnUse">
<stop stop-color="#181818"/>
<stop offset="1" stop-color="#424242" stop-opacity="0.89"/>
</linearGradient>
</defs>
</svg>
