<svg width="11" height="12" viewBox="0 0 11 12" fill="none" xmlns="http://www.w3.org/2000/svg">
<path d="M0.736775 6.89789L0.177582 6.30331C-0.0591936 6.05156 -0.0591936 5.64446 0.177582 5.39538L5.07179 0.188818C5.30856 -0.0629396 5.69144 -0.0629396 5.92569 0.188818L10.8224 5.39538C11.0592 5.64714 11.0592 6.05423 10.8224 6.30331L10.2632 6.89789C10.0239 7.15233 9.6335 7.14697 9.39924 6.88718L6.50756 3.65986L6.50756 11.3572C6.50756 11.7134 6.23804 12 5.90302 12H5.09698C4.76196 12 4.49244 11.7134 4.49244 11.3572L4.49244 3.65986L1.60076 6.88718C1.3665 7.14965 0.97607 7.155 0.736775 6.89789Z" fill="black"/>
</svg>
