<svg width="24" height="20" viewBox="0 0 24 20" fill="none" xmlns="http://www.w3.org/2000/svg">
<path d="M6.90633 9.1278L6.90963 9.1219C6.93113 9.0837 6.95893 9.0666 7.00333 9.0631C7.05643 9.059 7.13293 9.0784 7.20093 9.1408C9.91943 11.6483 10.7933 15.7985 9.30393 18.4389H9.30383L9.29843 18.4489C9.29733 18.4511 9.29013 18.4626 9.26763 18.4748C9.24523 18.487 9.21213 18.497 9.17113 18.4963H9.16363H1.64423C1.56183 18.4963 1.51793 18.4595 1.50413 18.4404C1.50373 18.4398 1.50323 18.4392 1.50293 18.4386L6.90633 9.1278ZM22.5 18.443C22.512 18.4363 22.576 18.3992 22.931 18.1947L22.5 18.4432C22.5 18.4431 22.5 18.4431 22.5 18.443ZM22.497 18.4441C22.497 18.4444 22.497 18.4448 22.496 18.4451C22.484 18.462 22.442 18.5 22.355 18.5H14.8698C14.7814 18.5 14.7364 18.4549 14.7288 18.4415H14.7289L14.7266 18.4376C14.3237 17.7421 13.8996 17.0513 13.4754 16.3604C12.1997 14.2824 10.9233 12.2034 10.2191 9.9901C9.30223 7.10835 9.38063 4.04336 11.9045 0.59643L11.9064 0.59383C11.9567 0.52423 12.0223 0.49989 12.0741 0.5C12.1251 0.50011 12.1528 0.52099 12.1683 0.54785L12.1693 0.54945C12.2952 0.76507 14.8764 5.23734 17.4278 9.6588L20.9192 15.7092L22.064 17.6934L22.384 18.2484L22.469 18.3945L22.49 18.432L22.496 18.4414L22.497 18.4438V18.4441Z" stroke="#F9F9F9"/>
</svg>
