<svg width="22" height="15" viewBox="0 0 22 15" fill="none" xmlns="http://www.w3.org/2000/svg">
<path d="M6.77019 10.1752C6.74559 10.1975 6.72379 10.2175 6.70509 10.2346L3.61909 11.3377L3.60869 11.3415L3.59849 11.3456L3.59338 11.3477C3.51778 11.3785 3.35749 11.4438 3.23389 11.5747C3.07049 11.7477 3.02809 11.9609 3.04909 12.1573C3.04929 12.1604 3.04969 12.1667 3.05009 12.1772C3.05099 12.199 3.05208 12.2294 3.05338 12.2671C3.05518 12.3243 3.05719 12.3941 3.05939 12.4697C3.06009 12.4938 3.06078 12.5185 3.06158 12.5435C3.06298 12.5916 3.06449 12.642 3.06599 12.6923L2.79929 12.7763C2.43249 12.8918 1.94329 13.0457 1.45319 13.1997C1.15529 13.2933 0.857182 13.3868 0.586182 13.4717C0.628482 13.4307 0.671781 13.3887 0.715881 13.346C1.47788 12.6076 2.49308 11.6254 3.51678 10.6351L3.89809 10.2662C5.81149 8.41526 7.65698 6.62997 7.80698 6.47819L7.80779 6.47731C7.93199 6.35102 8.04898 6.26781 8.14458 6.21328L9.40248 7.79646L9.22919 7.95281L9.15999 8.01533C8.87809 8.26963 8.52408 8.58913 8.17098 8.90791C7.78838 9.25333 7.40668 9.59813 7.11938 9.85833C6.97578 9.98833 6.85539 10.0975 6.77019 10.1752ZM5.89408 12.3544C5.72708 12.3176 5.56938 12.2829 5.42258 12.2505C5.57848 12.1951 5.74888 12.1346 5.92918 12.0706C6.29278 11.9415 6.69628 11.7983 7.10098 11.6545C8.33358 11.2165 9.60568 10.7638 9.70708 10.7212L9.71049 10.7198C9.74019 10.7071 9.79268 10.6925 9.86388 10.6808C9.92288 10.6711 9.97979 10.6658 10.023 10.6627C10.0276 10.6632 10.0485 10.6645 10.0939 10.6692C10.1559 10.6756 10.2394 10.6858 10.3397 10.6988C10.5395 10.7248 10.7943 10.7609 11.0518 10.7987C11.4087 10.851 11.766 10.9056 11.9815 10.9391L13.8228 13.2759L13.831 13.2863L13.8398 13.2963C14.0079 13.4879 14.24 13.7392 14.5369 13.8925C14.8695 14.0642 15.2601 14.1025 15.6809 13.9144L15.681 13.9145L15.6897 13.9104C15.6865 13.9119 15.6977 13.9069 15.7359 13.8903L15.8735 13.8307C15.9895 13.7806 16.1507 13.7111 16.3419 13.6287C16.7244 13.4641 17.2264 13.2483 17.7258 13.0337L19.094 12.4462L19.543 12.2535L19.574 12.2402C19.656 12.2555 19.746 12.2723 19.837 12.2894C19.447 12.5262 18.9537 12.825 18.4605 13.1236C17.9289 13.4454 17.3972 13.767 16.994 14.0106C16.7924 14.1325 16.623 14.2347 16.5018 14.3077C16.3734 14.3851 16.3118 14.422 16.312 14.4219V14.4218L16.3084 14.4239C16.1893 14.4919 15.9944 14.5193 15.6981 14.4855C15.487 14.4615 15.2869 14.4162 15.0794 14.3693C14.9931 14.3498 14.9055 14.33 14.8153 14.3114L14.8152 14.3113C14.6971 14.2869 12.0791 13.7133 9.47128 13.1408C8.16908 12.8549 6.87168 12.5698 5.89408 12.3544ZM16.4594 11.7532L16.451 11.7564C16.2565 11.8318 16.2332 11.8278 16.2263 11.8266H16.2259C16.2256 11.8265 16.2222 11.826 16.2145 11.8227C16.2062 11.8191 16.1911 11.8115 16.1687 11.7959C16.1221 11.7634 16.0521 11.7018 15.9554 11.5872L15.9553 11.5871C15.9551 11.5869 15.9544 11.586 15.9529 11.5842L15.9457 11.5754L15.9217 11.5458L15.8409 11.4456C15.7734 11.3616 15.6798 11.2449 15.5638 11.1C15.3319 10.8103 15.0108 10.4086 14.6301 9.93193C13.8686 8.97865 12.8689 7.72596 11.867 6.4704L11.6706 6.22438C10.0561 4.20118 8.47088 2.21463 7.91448 1.52084C7.92308 1.5208 7.93188 1.52076 7.94068 1.52072C7.95678 1.52064 7.97318 1.52056 7.98998 1.52048L7.99249 1.52046C8.32429 1.51711 11.6428 1.50029 11.9917 1.50029L11.9938 1.50028C12.4333 1.4985 12.594 1.50875 12.6903 1.53838C12.7328 1.55143 12.778 1.56719 12.9234 1.74629V1.74626C13.114 1.97646 19.899 9.93403 20.052 10.112C20.089 10.1563 20.127 10.2031 20.164 10.251C20.071 10.289 19.962 10.3338 19.84 10.3837C19.465 10.5367 18.9725 10.7371 18.4786 10.9375C17.9847 11.1379 17.49 11.3382 17.112 11.4909C16.923 11.5672 16.7633 11.6316 16.6476 11.6781L16.5094 11.7334C16.4716 11.7485 16.4582 11.7537 16.4594 11.7532ZM7.62318 1.14148C7.62318 1.14149 7.62339 1.14195 7.62379 1.14285L7.62318 1.14148ZM20.291 10.4549C20.291 10.4549 20.29 10.4538 20.29 10.4516C20.291 10.4539 20.291 10.4549 20.291 10.4549Z" stroke="white"/>
</svg>
