<svg width="181" height="130" viewBox="0 0 181 130" fill="none" xmlns="http://www.w3.org/2000/svg">
<path d="M22.1816 31.4663L22.1841 31.4632C30.9564 20.6123 40.8341 12.259 49.5719 7.47381C53.9466 5.07812 57.8785 3.66338 61.1322 3.18467C64.3933 2.70481 66.6262 3.20509 68.0735 4.16637C69.4519 5.0823 70.5154 6.6817 70.9483 9.38432C71.3919 12.1502 71.1148 15.8301 69.9233 20.2737C67.5453 29.1419 61.7685 40.1416 52.9864 51.0045C44.2141 61.8554 34.3373 70.2084 25.5994 74.9939C21.2239 77.3899 17.2928 78.8044 14.0391 79.2833C10.7779 79.763 8.54513 79.2628 7.09784 78.3017L7 79L7.09947 78.3026C5.70548 77.3751 4.63783 75.7663 4.2016 73.0653C3.75552 70.2994 4.03026 66.6226 5.2209 62.1826C7.59806 53.3209 13.3823 42.3299 22.1816 31.4663ZM84.7693 84.4033L84.771 84.4041C99.1807 92.2384 117.481 90.1589 134.969 81.6539C149.51 74.5822 163.948 62.8799 176.068 47.736C173.567 91.0026 133.926 126 84.5791 126C59.1019 126 36.1011 116.626 19.5396 101.572C39.7123 95.1346 56.8567 82.7674 68.4096 66.6873C71.9102 74.1927 77.3328 80.3566 84.7693 84.4033Z" stroke="#F9F9F9" stroke-width="8"/>
</svg>
