<svg width="6" height="7" viewBox="0 0 6 7" fill="none" xmlns="http://www.w3.org/2000/svg">
<path d="M0.428571 6.34375C0.428571 6.5178 0.496301 6.68472 0.61686 6.80779C0.737419 6.93086 0.900932 7 1.07143 7H4.92857C5.09907 7 5.26258 6.93086 5.38314 6.80779C5.5037 6.68472 5.57143 6.5178 5.57143 6.34375V1.75H0.428571V6.34375ZM4.07143 2.84375C4.07143 2.78574 4.09401 2.7301 4.13419 2.68907C4.17438 2.64805 4.22888 2.625 4.28571 2.625C4.34255 2.625 4.39705 2.64805 4.43724 2.68907C4.47742 2.7301 4.5 2.78574 4.5 2.84375V5.90625C4.5 5.96427 4.47742 6.01991 4.43724 6.06093C4.39705 6.10195 4.34255 6.125 4.28571 6.125C4.22888 6.125 4.17438 6.10195 4.13419 6.06093C4.09401 6.01991 4.07143 5.96427 4.07143 5.90625V2.84375ZM2.78571 2.84375C2.78571 2.78574 2.80829 2.7301 2.84848 2.68907C2.88866 2.64805 2.94317 2.625 3 2.625C3.05683 2.625 3.11134 2.64805 3.15152 2.68907C3.19171 2.7301 3.21429 2.78574 3.21429 2.84375V5.90625C3.21429 5.96427 3.19171 6.01991 3.15152 6.06093C3.11134 6.10195 3.05683 6.125 3 6.125C2.94317 6.125 2.88866 6.10195 2.84848 6.06093C2.80829 6.01991 2.78571 5.96427 2.78571 5.90625V2.84375ZM1.5 2.84375C1.5 2.78574 1.52258 2.7301 1.56276 2.68907C1.60295 2.64805 1.65745 2.625 1.71429 2.625C1.77112 2.625 1.82562 2.64805 1.86581 2.68907C1.90599 2.7301 1.92857 2.78574 1.92857 2.84375V5.90625C1.92857 5.96427 1.90599 6.01991 1.86581 6.06093C1.82562 6.10195 1.77112 6.125 1.71429 6.125C1.65745 6.125 1.60295 6.10195 1.56276 6.06093C1.52258 6.01991 1.5 5.96427 1.5 5.90625V2.84375ZM5.78571 0.437502H4.17857L4.05268 0.181838C4.02601 0.12718 3.98493 0.0812027 3.93406 0.0490787C3.88319 0.0169547 3.82455 -4.13979e-05 3.76473 2.39705e-06H2.23393C2.17425 -0.000231809 2.11571 0.0167009 2.06502 0.0488607C2.01433 0.0810204 1.97354 0.127106 1.94732 0.181838L1.82143 0.437502H0.214286C0.157454 0.437502 0.102949 0.460549 0.0627628 0.501573C0.0225765 0.542596 0 0.598236 0 0.656252L0 1.09375C0 1.15177 0.0225765 1.20741 0.0627628 1.24843C0.102949 1.28946 0.157454 1.3125 0.214286 1.3125H5.78571C5.84255 1.3125 5.89705 1.28946 5.93724 1.24843C5.97742 1.20741 6 1.15177 6 1.09375V0.656252C6 0.598236 5.97742 0.542596 5.93724 0.501573C5.89705 0.460549 5.84255 0.437502 5.78571 0.437502Z" fill="#4E4E4E"/>
</svg>
